<?xml version="1.0" standalone="no"?><!DOCTYPE svg PUBLIC "-//W3C//DTD SVG 1.1//EN" "http://www.w3.org/Graphics/SVG/1.1/DTD/svg11.dtd"><svg t="1617336372609" class="icon" viewBox="0 0 1024 1024" version="1.1" xmlns="http://www.w3.org/2000/svg" p-id="10718" xmlns:xlink="http://www.w3.org/1999/xlink" width="200" height="200"><defs><style type="text/css"></style></defs><path d="M92.8 192A19.2 19.2 0 0 1 112 172.8h83.056a51.2 51.2 0 0 1 49.728 38.976L263.504 288h614.528a51.2 51.2 0 0 1 49.376 64.752l-76.112 277.28A83.2 83.2 0 0 1 771.04 691.2H388.288a83.2 83.2 0 0 1-80.8-63.344L229.92 312.192a17.216 17.216 0 0 1-0.192-0.8l-22.24-90.448a12.8 12.8 0 0 0-12.432-9.744H112A19.2 19.2 0 0 1 92.8 192z m180.16 134.4l71.84 292.288a44.8 44.8 0 0 0 43.488 34.112h382.768a44.8 44.8 0 0 0 43.2-32.944l76.128-277.28a12.8 12.8 0 0 0-12.352-16.176H272.944z" p-id="10719" fill="#2c2c2c"></path><path d="M448 784a48 48 0 1 1-96 0 48 48 0 0 1 96 0zM816 784a48 48 0 1 1-96 0 48 48 0 0 1 96 0z" p-id="10720" fill="#2c2c2c"></path></svg>