<?xml version="1.0" standalone="no"?><!DOCTYPE svg PUBLIC "-//W3C//DTD SVG 1.1//EN" "http://www.w3.org/Graphics/SVG/1.1/DTD/svg11.dtd"><svg t="1617335919412" class="icon" viewBox="0 0 1024 1024" version="1.1" xmlns="http://www.w3.org/2000/svg" p-id="6529" xmlns:xlink="http://www.w3.org/1999/xlink" width="200" height="200"><defs><style type="text/css"></style></defs><path d="M798.72 908.3392h-176.896c-16.9472 0-30.72-14.08-30.72-31.3344v-215.2448h-184.832v215.2448c0 17.2544-13.7728 31.3344-30.72 31.3344H198.656c-16.9472 0-30.72-14.08-30.72-31.3344V447.6416c0-11.3152 9.1648-20.48 20.48-20.48s20.48 9.1648 20.48 20.48v419.7888h156.416v-215.2448c0-17.2544 13.7728-31.3344 30.72-31.3344h205.312c16.9472 0 30.72 14.08 30.72 31.3344v215.2448H788.48V447.6416c0-11.3152 9.1648-20.48 20.48-20.48s20.48 9.1648 20.48 20.48v429.4144c0 17.2544-13.7728 31.2832-30.72 31.2832z" fill="#d81e06" p-id="6530"></path><path d="M912.384 562.688c-5.2224 0-10.496-1.9968-14.4896-5.9904L498.7904 157.2352l-392.3456 398.3872a20.52096 20.52096 0 0 1-28.9792 0.2048 20.52096 20.52096 0 0 1-0.2048-28.9792l399.5648-405.76a30.53056 30.53056 0 0 1 21.76-9.1648h0.1536c8.192 0 15.9232 3.1744 21.7088 9.0112l406.3744 406.7328a20.52096 20.52096 0 0 1 0 28.9792c-3.9936 4.0448-9.216 6.0416-14.4384 6.0416z" fill="#d81e06" p-id="6531"></path></svg>